<svg xmlns="http://www.w3.org/2000/svg" xmlns:xlink="http://www.w3.org/1999/xlink" width="500" zoomAndPan="magnify" viewBox="0 0 375 374.999991" height="500" preserveAspectRatio="xMidYMid meet" version="1.0"><defs><g/><clipPath id="ff44c45619"><path d="M 71.492188 120.289062 L 303.507812 120.289062 L 303.507812 227.855469 L 71.492188 227.855469 Z M 71.492188 120.289062 " clip-rule="nonzero"/></clipPath><clipPath id="b8913bdd73"><path d="M 0.492188 0.289062 L 232.507812 0.289062 L 232.507812 107.855469 L 0.492188 107.855469 Z M 0.492188 0.289062 " clip-rule="nonzero"/></clipPath><clipPath id="93afbc1bbc"><rect x="0" width="233" y="0" height="108"/></clipPath><clipPath id="f429f2274a"><rect x="0" width="233" y="0" height="186"/></clipPath></defs><g clip-path="url(#ff44c45619)"><g transform="matrix(1, 0, 0, 1, 71, 120)"><g clip-path="url(#93afbc1bbc)"><g clip-path="url(#b8913bdd73)"><path fill="#0ea24e" d="M 0.492188 0.289062 L 232.429688 0.289062 L 232.429688 107.855469 L 0.492188 107.855469 Z M 0.492188 0.289062 " fill-opacity="1" fill-rule="nonzero"/></g></g></g></g><g transform="matrix(1, 0, 0, 1, 72, 138)"><g clip-path="url(#f429f2274a)"><g fill="#ffffff" fill-opacity="1"><g transform="translate(2.192136, 58.517621)"><g><path d="M 14.703125 -47.109375 L 14.703125 -1.390625 C 14.703125 -0.921875 14.546875 -0.570312 14.234375 -0.34375 C 13.929688 -0.113281 13.625 0 13.3125 0 L 6.15625 0 C 5.851562 0 5.546875 -0.113281 5.234375 -0.34375 C 4.921875 -0.570312 4.765625 -0.921875 4.765625 -1.390625 L 4.765625 -47.109375 C 4.765625 -47.578125 4.921875 -47.925781 5.234375 -48.15625 C 5.546875 -48.382812 5.851562 -48.5 6.15625 -48.5 L 13.3125 -48.5 C 13.625 -48.5 13.929688 -48.382812 14.234375 -48.15625 C 14.546875 -47.925781 14.703125 -47.578125 14.703125 -47.109375 Z M 14.703125 -47.109375 "/></g></g></g><g fill="#ffffff" fill-opacity="1"><g transform="translate(24.519901, 58.517621)"><g><path d="M 32.40625 -1.390625 L 14.703125 -28.796875 L 14.703125 -1.390625 C 14.703125 -0.921875 14.546875 -0.570312 14.234375 -0.34375 C 13.929688 -0.113281 13.625 0 13.3125 0 L 6.15625 0 C 5.851562 0 5.546875 -0.113281 5.234375 -0.34375 C 4.921875 -0.570312 4.765625 -0.921875 4.765625 -1.390625 L 4.765625 -47.109375 C 4.765625 -47.578125 4.921875 -47.925781 5.234375 -48.15625 C 5.546875 -48.382812 5.851562 -48.5 6.15625 -48.5 L 13.171875 -48.5 C 13.472656 -48.5 13.800781 -48.367188 14.15625 -48.109375 C 14.519531 -47.859375 14.832031 -47.523438 15.09375 -47.109375 L 32.796875 -19.09375 L 32.796875 -47.109375 C 32.796875 -47.578125 32.945312 -47.925781 33.25 -48.15625 C 33.5625 -48.382812 33.875 -48.5 34.1875 -48.5 L 41.34375 -48.5 C 41.644531 -48.5 41.945312 -48.382812 42.25 -48.15625 C 42.5625 -47.925781 42.71875 -47.578125 42.71875 -47.109375 L 42.71875 -1.390625 C 42.71875 -0.921875 42.5625 -0.570312 42.25 -0.34375 C 41.945312 -0.113281 41.644531 0 41.34375 0 L 34.328125 0 C 33.609375 0 32.96875 -0.460938 32.40625 -1.390625 Z M 32.40625 -1.390625 "/></g></g></g><g fill="#ffffff" fill-opacity="1"><g transform="translate(74.87285, 58.517621)"><g><path d="M 38.34375 -27.09375 L 38.34375 -2.6875 C 38.34375 -2.488281 38.238281 -2.335938 38.03125 -2.234375 C 36.695312 -1.566406 35.066406 -1.023438 33.140625 -0.609375 C 31.210938 -0.203125 29.3125 0.0976562 27.4375 0.296875 C 25.570312 0.503906 24.019531 0.609375 22.78125 0.609375 C 19.5 0.609375 16.738281 0.1875 14.5 -0.65625 C 12.269531 -1.5 10.460938 -2.613281 9.078125 -4 C 7.691406 -5.382812 6.625 -6.875 5.875 -8.46875 C 5.132812 -10.0625 4.632812 -11.597656 4.375 -13.078125 C 4.125 -14.566406 4 -15.851562 4 -16.9375 L 4 -31.5625 C 4 -32.644531 4.125 -33.925781 4.375 -35.40625 C 4.632812 -36.894531 5.132812 -38.4375 5.875 -40.03125 C 6.625 -41.625 7.691406 -43.113281 9.078125 -44.5 C 10.460938 -45.882812 12.269531 -47 14.5 -47.84375 C 16.738281 -48.6875 19.5 -49.109375 22.78125 -49.109375 C 24.632812 -49.109375 26.660156 -48.953125 28.859375 -48.640625 C 31.066406 -48.335938 33.046875 -47.878906 34.796875 -47.265625 C 35.109375 -47.160156 35.3125 -46.976562 35.40625 -46.71875 C 35.507812 -46.46875 35.5625 -46.289062 35.5625 -46.1875 L 34.484375 -39.5 C 34.378906 -39.1875 34.222656 -38.976562 34.015625 -38.875 C 33.816406 -38.769531 33.613281 -38.71875 33.40625 -38.71875 C 30.175781 -39.59375 27.175781 -40.03125 24.40625 -40.03125 C 22.8125 -40.03125 21.207031 -39.757812 19.59375 -39.21875 C 17.976562 -38.6875 16.617188 -37.738281 15.515625 -36.375 C 14.410156 -35.007812 13.859375 -33.097656 13.859375 -30.640625 L 13.859375 -17.859375 C 13.859375 -15.441406 14.410156 -13.539062 15.515625 -12.15625 C 16.617188 -10.769531 17.976562 -9.804688 19.59375 -9.265625 C 21.207031 -8.734375 22.8125 -8.46875 24.40625 -8.46875 C 25.28125 -8.46875 26.148438 -8.519531 27.015625 -8.625 C 27.890625 -8.726562 28.867188 -8.878906 29.953125 -9.078125 L 29.953125 -20.484375 L 25.859375 -20.484375 C 25.398438 -20.484375 25.054688 -20.632812 24.828125 -20.9375 C 24.597656 -21.25 24.484375 -21.554688 24.484375 -21.859375 L 24.484375 -27.09375 C 24.484375 -27.40625 24.597656 -27.710938 24.828125 -28.015625 C 25.054688 -28.328125 25.398438 -28.484375 25.859375 -28.484375 L 36.953125 -28.484375 C 37.265625 -28.484375 37.570312 -28.367188 37.875 -28.140625 C 38.1875 -27.910156 38.34375 -27.5625 38.34375 -27.09375 Z M 38.34375 -27.09375 "/></g></g></g><g fill="#ffffff" fill-opacity="1"><g transform="translate(120.837237, 58.517621)"><g><path d="M 28.09375 -0.921875 L 23.25 -11.390625 C 22.738281 -11.335938 22.238281 -11.296875 21.75 -11.265625 C 21.257812 -11.242188 20.734375 -11.234375 20.171875 -11.234375 L 14.703125 -11.234375 L 14.703125 -1.390625 C 14.703125 -0.921875 14.546875 -0.570312 14.234375 -0.34375 C 13.929688 -0.113281 13.625 0 13.3125 0 L 6.15625 0 C 5.851562 0 5.546875 -0.113281 5.234375 -0.34375 C 4.921875 -0.570312 4.765625 -0.921875 4.765625 -1.390625 L 4.765625 -47.109375 C 4.765625 -47.578125 4.921875 -47.925781 5.234375 -48.15625 C 5.546875 -48.382812 5.851562 -48.5 6.15625 -48.5 L 20.171875 -48.5 C 23.765625 -48.5 26.710938 -47.984375 29.015625 -46.953125 C 31.328125 -45.929688 33.132812 -44.648438 34.4375 -43.109375 C 35.75 -41.566406 36.6875 -40.023438 37.25 -38.484375 C 37.820312 -36.953125 38.171875 -35.671875 38.296875 -34.640625 C 38.429688 -33.617188 38.5 -33.109375 38.5 -33.109375 L 38.5 -26.71875 C 38.5 -26.71875 38.445312 -26.28125 38.34375 -25.40625 C 38.238281 -24.53125 37.976562 -23.425781 37.5625 -22.09375 C 37.15625 -20.757812 36.460938 -19.382812 35.484375 -17.96875 C 34.515625 -16.5625 33.179688 -15.296875 31.484375 -14.171875 L 37.640625 -1.390625 C 37.640625 -0.921875 37.484375 -0.570312 37.171875 -0.34375 C 36.867188 -0.113281 36.566406 0 36.265625 0 L 29.40625 0 C 28.789062 0 28.351562 -0.304688 28.09375 -0.921875 Z M 20.171875 -39.421875 L 14.703125 -39.421875 L 14.703125 -20.328125 L 20.171875 -20.328125 C 20.785156 -20.328125 21.550781 -20.414062 22.46875 -20.59375 C 23.394531 -20.769531 24.332031 -21.128906 25.28125 -21.671875 C 26.238281 -22.210938 27.023438 -23.046875 27.640625 -24.171875 C 28.253906 -25.296875 28.5625 -26.8125 28.5625 -28.71875 L 28.5625 -31.171875 C 28.5625 -33.078125 28.253906 -34.582031 27.640625 -35.6875 C 27.023438 -36.789062 26.238281 -37.609375 25.28125 -38.140625 C 24.332031 -38.679688 23.394531 -39.03125 22.46875 -39.1875 C 21.550781 -39.34375 20.785156 -39.421875 20.171875 -39.421875 Z M 20.171875 -39.421875 "/></g></g></g><g fill="#ffffff" fill-opacity="1"><g transform="translate(164.645852, 58.517621)"><g><path d="M 14.703125 -47.109375 L 14.703125 -1.390625 C 14.703125 -0.921875 14.546875 -0.570312 14.234375 -0.34375 C 13.929688 -0.113281 13.625 0 13.3125 0 L 6.15625 0 C 5.851562 0 5.546875 -0.113281 5.234375 -0.34375 C 4.921875 -0.570312 4.765625 -0.921875 4.765625 -1.390625 L 4.765625 -47.109375 C 4.765625 -47.578125 4.921875 -47.925781 5.234375 -48.15625 C 5.546875 -48.382812 5.851562 -48.5 6.15625 -48.5 L 13.3125 -48.5 C 13.625 -48.5 13.929688 -48.382812 14.234375 -48.15625 C 14.546875 -47.925781 14.703125 -47.578125 14.703125 -47.109375 Z M 14.703125 -47.109375 "/></g></g></g><g fill="#ffffff" fill-opacity="1"><g transform="translate(186.973616, 58.517621)"><g><path d="M 19.546875 -39.421875 L 14.703125 -39.421875 L 14.703125 -9.078125 L 19.546875 -9.078125 C 20.171875 -9.078125 20.941406 -9.15625 21.859375 -9.3125 C 22.785156 -9.46875 23.707031 -9.8125 24.625 -10.34375 C 25.550781 -10.882812 26.320312 -11.707031 26.9375 -12.8125 C 27.5625 -13.914062 27.875 -15.421875 27.875 -17.328125 L 27.875 -31.171875 C 27.875 -33.078125 27.5625 -34.582031 26.9375 -35.6875 C 26.320312 -36.789062 25.550781 -37.609375 24.625 -38.140625 C 23.707031 -38.679688 22.785156 -39.03125 21.859375 -39.1875 C 20.941406 -39.34375 20.171875 -39.421875 19.546875 -39.421875 Z M 19.78125 0 L 6.15625 0 C 5.851562 0 5.546875 -0.113281 5.234375 -0.34375 C 4.921875 -0.570312 4.765625 -0.921875 4.765625 -1.390625 L 4.765625 -47.109375 C 4.765625 -47.578125 4.921875 -47.925781 5.234375 -48.15625 C 5.546875 -48.382812 5.851562 -48.5 6.15625 -48.5 L 19.78125 -48.5 C 23.375 -48.5 26.300781 -47.984375 28.5625 -46.953125 C 30.820312 -45.929688 32.59375 -44.648438 33.875 -43.109375 C 35.15625 -41.566406 36.066406 -40.023438 36.609375 -38.484375 C 37.148438 -36.953125 37.484375 -35.671875 37.609375 -34.640625 C 37.734375 -33.617188 37.796875 -33.109375 37.796875 -33.109375 L 37.796875 -15.390625 C 37.796875 -15.390625 37.734375 -14.875 37.609375 -13.84375 C 37.484375 -12.820312 37.148438 -11.539062 36.609375 -10 C 36.066406 -8.46875 35.15625 -6.929688 33.875 -5.390625 C 32.59375 -3.847656 30.820312 -2.5625 28.5625 -1.53125 C 26.300781 -0.507812 23.375 0 19.78125 0 Z M 19.78125 0 "/></g></g></g><g fill="#ffffff" fill-opacity="1"><g transform="translate(53.194412, 165.985807)"><g><path d="M 6.15625 -48.5 L 33.328125 -48.5 C 33.796875 -48.5 34.144531 -48.34375 34.375 -48.03125 C 34.601562 -47.726562 34.71875 -47.421875 34.71875 -47.109375 L 34.71875 -40.796875 C 34.71875 -40.492188 34.601562 -40.1875 34.375 -39.875 C 34.144531 -39.570312 33.796875 -39.421875 33.328125 -39.421875 L 14.703125 -39.421875 L 14.703125 -26.9375 L 29.796875 -26.9375 C 30.253906 -26.9375 30.597656 -26.78125 30.828125 -26.46875 C 31.054688 -26.164062 31.171875 -25.863281 31.171875 -25.5625 L 31.171875 -19.25 C 31.171875 -18.9375 31.054688 -18.625 30.828125 -18.3125 C 30.597656 -18.007812 30.253906 -17.859375 29.796875 -17.859375 L 14.703125 -17.859375 L 14.703125 -1.390625 C 14.703125 -0.921875 14.546875 -0.570312 14.234375 -0.34375 C 13.929688 -0.113281 13.625 0 13.3125 0 L 6.15625 0 C 5.851562 0 5.546875 -0.113281 5.234375 -0.34375 C 4.921875 -0.570312 4.765625 -0.921875 4.765625 -1.390625 L 4.765625 -47.109375 C 4.765625 -47.578125 4.921875 -47.925781 5.234375 -48.15625 C 5.546875 -48.382812 5.851562 -48.5 6.15625 -48.5 Z M 6.15625 -48.5 "/></g></g></g><g fill="#ffffff" fill-opacity="1"><g transform="translate(93.230404, 165.985807)"><g><path d="M 6.15625 -48.5 L 33.328125 -48.5 C 33.796875 -48.5 34.144531 -48.34375 34.375 -48.03125 C 34.601562 -47.726562 34.71875 -47.421875 34.71875 -47.109375 L 34.71875 -40.796875 C 34.71875 -40.492188 34.601562 -40.1875 34.375 -39.875 C 34.144531 -39.570312 33.796875 -39.421875 33.328125 -39.421875 L 14.703125 -39.421875 L 14.703125 -26.9375 L 29.796875 -26.9375 C 30.253906 -26.9375 30.597656 -26.78125 30.828125 -26.46875 C 31.054688 -26.164062 31.171875 -25.863281 31.171875 -25.5625 L 31.171875 -19.25 C 31.171875 -18.9375 31.054688 -18.625 30.828125 -18.3125 C 30.597656 -18.007812 30.253906 -17.859375 29.796875 -17.859375 L 14.703125 -17.859375 L 14.703125 -1.390625 C 14.703125 -0.921875 14.546875 -0.570312 14.234375 -0.34375 C 13.929688 -0.113281 13.625 0 13.3125 0 L 6.15625 0 C 5.851562 0 5.546875 -0.113281 5.234375 -0.34375 C 4.921875 -0.570312 4.765625 -0.921875 4.765625 -1.390625 L 4.765625 -47.109375 C 4.765625 -47.578125 4.921875 -47.925781 5.234375 -48.15625 C 5.546875 -48.382812 5.851562 -48.5 6.15625 -48.5 Z M 6.15625 -48.5 "/></g></g></g><g fill="#ffffff" fill-opacity="1"><g transform="translate(133.266397, 165.985807)"><g><path d="M 22.25 -49.109375 C 25.894531 -49.109375 28.859375 -48.59375 31.140625 -47.5625 C 33.421875 -46.539062 35.21875 -45.273438 36.53125 -43.765625 C 37.84375 -42.253906 38.765625 -40.726562 39.296875 -39.1875 C 39.835938 -37.644531 40.171875 -36.359375 40.296875 -35.328125 C 40.429688 -34.304688 40.5 -33.796875 40.5 -33.796875 L 40.5 -14.703125 C 40.5 -14.703125 40.429688 -14.1875 40.296875 -13.15625 C 40.171875 -12.132812 39.835938 -10.863281 39.296875 -9.34375 C 38.765625 -7.832031 37.84375 -6.304688 36.53125 -4.765625 C 35.21875 -3.234375 33.421875 -1.953125 31.140625 -0.921875 C 28.859375 0.0976562 25.894531 0.609375 22.25 0.609375 C 18.601562 0.609375 15.640625 0.0976562 13.359375 -0.921875 C 11.078125 -1.953125 9.28125 -3.222656 7.96875 -4.734375 C 6.65625 -6.242188 5.726562 -7.769531 5.1875 -9.3125 C 4.65625 -10.851562 4.320312 -12.132812 4.1875 -13.15625 C 4.0625 -14.1875 4 -14.703125 4 -14.703125 L 4 -33.796875 C 4 -33.796875 4.0625 -34.304688 4.1875 -35.328125 C 4.320312 -36.359375 4.65625 -37.644531 5.1875 -39.1875 C 5.726562 -40.726562 6.65625 -42.253906 7.96875 -43.765625 C 9.28125 -45.273438 11.078125 -46.539062 13.359375 -47.5625 C 15.640625 -48.59375 18.601562 -49.109375 22.25 -49.109375 Z M 22.25 -8.46875 C 22.863281 -8.46875 23.628906 -8.554688 24.546875 -8.734375 C 25.472656 -8.910156 26.398438 -9.269531 27.328125 -9.8125 C 28.253906 -10.351562 29.023438 -11.1875 29.640625 -12.3125 C 30.253906 -13.445312 30.5625 -14.960938 30.5625 -16.859375 L 30.5625 -31.640625 C 30.5625 -33.535156 30.253906 -35.046875 29.640625 -36.171875 C 29.023438 -37.304688 28.253906 -38.144531 27.328125 -38.6875 C 26.398438 -39.226562 25.472656 -39.585938 24.546875 -39.765625 C 23.628906 -39.941406 22.863281 -40.03125 22.25 -40.03125 C 21.632812 -40.03125 20.863281 -39.941406 19.9375 -39.765625 C 19.007812 -39.585938 18.082031 -39.226562 17.15625 -38.6875 C 16.238281 -38.144531 15.472656 -37.304688 14.859375 -36.171875 C 14.242188 -35.046875 13.9375 -33.535156 13.9375 -31.640625 L 13.9375 -16.859375 C 13.9375 -14.960938 14.242188 -13.445312 14.859375 -12.3125 C 15.472656 -11.1875 16.238281 -10.351562 17.15625 -9.8125 C 18.082031 -9.269531 19.007812 -8.910156 19.9375 -8.734375 C 20.863281 -8.554688 21.632812 -8.46875 22.25 -8.46875 Z M 22.25 -8.46875 "/></g></g></g></g></g></svg>